<svg enable-background="new 0 0 256 256" height="512" viewBox="0 0 256 256" width="512" xmlns="http://www.w3.org/2000/svg"><g id="Layer_13"><g><g><circle cx="162.437" cy="46.83" fill="#5290db" r="44.33"/></g><g><path d="m15.212 203.811v21.248c0 1.825 1.48 3.305 3.305 3.305h24.935v-24.554h-28.24z" fill="#fc657e"/></g><g><path d="m43.452 203.811h28.176v24.554h-28.176z" fill="#b2e26d" transform="matrix(-1 0 0 -1 115.08 432.176)"/></g><g><path d="m71.628 203.811h28.176v24.554h-28.176z" fill="#b2e26d"/></g><g><path d="m99.804 203.811h28.176v24.554h-28.176z" fill="#b2e26d" transform="matrix(-1 0 0 -1 227.784 432.176)"/></g><g><path d="m127.98 203.811h28.24v24.554h-28.24z" fill="#fc657e" transform="matrix(-1 0 0 -1 284.2 432.176)"/></g><g><path d="m18.517 190.775c-1.825 0-3.305 1.48-3.305 3.305v9.73h28.24v-13.036h-24.935z" fill="#9be5f9"/></g><g><path d="m43.452 190.775h28.176v13.036h-28.176z" fill="#9be5f9" transform="matrix(-1 0 0 -1 115.08 394.586)"/></g><g><path d="m71.628 190.775h28.176v13.036h-28.176z" fill="#9be5f9"/></g><g><path d="m99.804 190.775h28.176v13.036h-28.176z" fill="#9be5f9" transform="matrix(-1 0 0 -1 227.784 394.586)"/></g><g><path d="m127.98 190.775h28.24v13.036h-28.24z" fill="#9be5f9" transform="matrix(-1 0 0 -1 284.2 394.586)"/></g><g><path d="m156.196 203.811h28.176v24.554h-28.176z" fill="#b2e26d"/></g><g><path d="m184.372 203.811h28.176v24.554h-28.176z" fill="#fc657e" transform="matrix(-1 0 0 -1 396.92 432.176)"/></g><g><path d="m212.548 203.811v24.554h24.935c1.825 0 3.305-1.48 3.305-3.305v-21.248h-28.24z" fill="#fc657e"/></g><g><path d="m156.196 190.775h28.176v13.036h-28.176z" fill="#9be5f9"/></g><g><path d="m184.372 190.775h28.176v13.036h-28.176z" fill="#9be5f9" transform="matrix(-1 0 0 -1 396.92 394.586)"/></g><g><path d="m237.483 190.775h-24.935v13.036h28.24v-9.73c0-1.826-1.48-3.306-3.305-3.306z" fill="#9be5f9"/></g><g><path d="m182.462 81.089c-4.941-1.244-8.826-3.374-8.776-3.35-2.031-1.002-3.317-3.07-3.317-5.335v-2.802c-2.378 1.245-5.075 1.954-7.932 1.954s-5.554-.709-7.932-1.954v2.802c0 2.262-1.283 4.332-3.311 5.332-2.747 1.355-5.144 2.437-8.782 3.353l-6.111 1.538c7.329 5.361 16.361 8.532 26.137 8.532s18.807-3.171 26.136-8.532z" fill="#70d6f9"/></g><g><path d="m156.848 143.793v-17.081c0-8.75-7.119-15.869-15.869-15.869h-70.395c-8.75 0-15.869 7.119-15.869 15.869v17.081z" fill="#fc657e"/></g><g><path d="m50.645 145.803v7.917c0 1.11.9 2.01 2.01 2.01h106.251c1.11 0 2.01-.9 2.01-2.01v-7.917c0-1.11-.9-2.01-2.01-2.01h-106.25c-1.11 0-2.011.9-2.011 2.01z" fill="#dae6f1"/></g><g><path d="m58.784 155.731v8.388c0 4.339 3.55 7.889 7.889 7.889h8.637c4.339 0 7.889-3.55 7.889-7.889v-8.388z" fill="#5b5d60"/></g><g><path d="m128.365 155.731v8.388c0 4.339 3.55 7.889 7.889 7.889h8.637c4.339 0 7.889-3.55 7.889-7.889v-8.388z" fill="#5b5d60"/></g><g><path d="m129.294 76.254h-50.757c-4.67 0-8.65 3.386-9.399 7.995l-4.51 27.763c1.841-.749 3.85-1.17 5.957-1.17h70.395c2.107 0 4.115.421 5.957 1.17l-4.133-25.438c-5.151-2.548-9.733-6.067-13.51-10.32z" fill="#5290db"/></g><g><g><path d="m152.82 100.52h-7.752l1.867 11.493c-.001 0-.003-.001-.004-.001 3.46 1.406 6.314 3.993 8.057 7.265 4.192-.989 7.34-4.765 7.34-9.248.001-5.23-4.278-9.509-9.508-9.509z" fill="#dae6f1"/></g></g><g><g><path d="m64.627 112.013 1.867-11.493h-7.752c-5.23 0-9.509 4.279-9.509 9.509 0 4.483 3.148 8.259 7.34 9.248 1.743-3.271 4.596-5.858 8.054-7.264z" fill="#dae6f1"/></g></g><g><path d="m180.759 41.217c-.376 0-.744.032-1.105.088v13.034c0 .388-.018.773-.043 1.155.375.06.756.1 1.148.1 3.97 0 7.188-3.218 7.188-7.188s-3.218-7.189-7.188-7.189z" fill="#f9d0b4"/></g><g><path d="m145.219 54.339c0-1.784 0-9.488 0-13.034-.36-.056-.729-.088-1.105-.088-3.97 0-7.188 3.218-7.188 7.188s3.218 7.188 7.188 7.188c.392 0 .773-.04 1.148-.1-.025-.382-.043-.766-.043-1.154z" fill="#f9d0b4"/></g><g><path d="m179.59 26.531c-.577 0-1.076-.445-1.084-1.021-.132-9.594-11.088-11.396-21.998-9.512-9.25 1.597-16.011 9.619-16.011 19.006v7.198c1.064-.622 2.297-.984 3.618-.984.376 0 .744.032 1.105.088v-1.415c0-2.288.881-4.488 2.46-6.143l.006-.006c1.124-1.178 2.95-1.291 4.233-.287 2.038 1.595 5.567 3.573 10.538 3.573 4.959 0 8.47-1.969 10.499-3.561 1.283-1.007 3.114-.899 4.24.282 1.579 1.656 2.46 3.856 2.46 6.143v1.415c.36-.056.729-.088 1.105-.088 1.337 0 2.584.372 3.657 1.007 0-2.009 0-4.072 0-5.91-.003-8.592-3.105-9.785-4.828-9.785z" fill="#818182"/></g><g><path d="m151.187 77.739c-.318.157-.631.31-.943.459 1.804 4.992 6.598 8.586 12.192 8.586 5.588 0 10.378-3.586 12.187-8.57-.61-.296-.952-.483-.937-.476-2.031-1.002-3.318-3.07-3.318-5.335v-2.802c-2.378 1.245-5.075 1.954-7.932 1.954-2.857 0-5.554-.709-7.932-1.954v2.802c.001 2.267-1.286 4.335-3.317 5.336z" fill="#f9d0b4"/></g><g><path d="m177.194 33.746c-1.126-1.181-2.956-1.289-4.24-.282-2.029 1.593-5.54 3.561-10.499 3.561-4.971 0-8.501-1.978-10.538-3.573-1.282-1.003-3.109-.891-4.233.287l-.006.006c-1.579 1.656-2.46 3.856-2.46 6.143v14.45c0 9.47 7.748 17.217 17.217 17.217 9.47 0 17.217-7.748 17.217-17.217v-14.45c.002-2.286-.879-4.486-2.458-6.142z" fill="#f9d0b4"/></g><g><circle cx="139.709" cy="127.843" fill="#9be5f9" r="6.477"/></g><g><circle cx="71.853" cy="127.843" fill="#9be5f9" r="6.477"/></g><g><path d="m123.278 143.793v-5.858c0-3.935-3.219-7.154-7.154-7.154h-20.686c-3.935 0-7.154 3.219-7.154 7.154v5.858z" fill="#ef4460"/></g><g><path d="m129.294 76.254h-50.757c-4.67 0-8.651 3.386-9.399 7.995l-.642 3.951h74.571l-.264-1.626c-5.15-2.548-9.732-6.067-13.509-10.32z" fill="#fc657e"/></g><g><path d="m105.925 249.525c-3.1-.6-5.6-3-6.2-6.1 0-.1-.3-.1-.3 0-.6 3.1-3.1 5.5-6.2 6.1-.1 0-.1.2 0 .3 3.1.6 5.6 3 6.2 6.1 0 .1.3.1.3 0 .6-3.1 3.1-5.5 6.2-6.1.1-.1.1-.3 0-.3z" fill="#87d147"/></g><g><circle cx="190.669" cy="148.6" fill="#f5c84c" r="3.4"/></g><g><path d="m205.437 121.5h2.3v2.3c0 1.8 1.4 3.2 3.2 3.2 1.7 0 3.2-1.4 3.2-3.1v-.1-2.3h2.3c1.8 0 3.2-1.4 3.2-3.2 0-1.7-1.4-3.2-3.1-3.2h-.1-2.3v-2.3c0-1.8-1.4-3.2-3.2-3.2-1.7 0-3.2 1.4-3.2 3.1v.1 2.3h-2.3c-1.8 0-3.2 1.4-3.2 3.2-.1 1.7 1.3 3.2 3.2 3.2-.1 0-.1 0 0 0z" fill="#70d6f9"/></g><g><circle cx="105.669" cy="3.4" fill="#fc657e" r="3.4"/></g><g><path d="m69.418 28.2c4.5-.8 8-4.3 8.9-8.7 0-.2.4-.2.4 0 .9 4.4 4.4 7.9 8.9 8.7.2 0 .2.3 0 .4-4.5.8-8 4.3-8.9 8.7 0 .2-.4.2-.4 0-.9-4.4-4.4-7.9-8.9-8.7-.2-.1-.2-.4 0-.4z" fill="#f5c84c"/></g><g><path d="m134.204 112.528c-1.381 0-2.5-1.119-2.5-2.5 0-4.679-3.807-8.486-8.486-8.486s-8.486 3.807-8.486 8.486c0 1.381-1.119 2.5-2.5 2.5s-2.5-1.119-2.5-2.5c0-7.437 6.05-13.486 13.486-13.486s13.486 6.05 13.486 13.486c0 1.381-1.119 2.5-2.5 2.5z"/></g><g><path d="m162.437 93.659c-25.822 0-46.83-21.008-46.83-46.83s21.008-46.829 46.83-46.829c25.821 0 46.829 21.008 46.829 46.83s-21.007 46.829-46.829 46.829zm0-88.659c-23.064 0-41.83 18.765-41.83 41.83s18.765 41.83 41.83 41.83c23.064 0 41.829-18.765 41.829-41.83s-18.764-41.83-41.829-41.83z"/></g><g><path d="m43.452 230.865h-24.934c-3.201 0-5.806-2.604-5.806-5.805v-21.249c0-1.381 1.119-2.5 2.5-2.5h28.24c1.381 0 2.5 1.119 2.5 2.5v24.554c0 1.381-1.119 2.5-2.5 2.5zm-25.74-24.554v18.749c0 .444.361.805.806.805h22.435v-19.554z"/></g><g><path d="m71.628 230.865h-28.176c-1.381 0-2.5-1.119-2.5-2.5v-24.554c0-1.381 1.119-2.5 2.5-2.5h28.176c1.381 0 2.5 1.119 2.5 2.5v24.554c0 1.381-1.119 2.5-2.5 2.5zm-25.676-5h23.176v-19.554h-23.176z"/></g><g><path d="m99.804 230.865h-28.176c-1.381 0-2.5-1.119-2.5-2.5v-24.554c0-1.381 1.119-2.5 2.5-2.5h28.176c1.381 0 2.5 1.119 2.5 2.5v24.554c0 1.381-1.119 2.5-2.5 2.5zm-25.676-5h23.176v-19.554h-23.176z"/></g><g><path d="m127.98 230.865h-28.176c-1.381 0-2.5-1.119-2.5-2.5v-24.554c0-1.381 1.119-2.5 2.5-2.5h28.176c1.38 0 2.5 1.119 2.5 2.5v24.554c0 1.381-1.12 2.5-2.5 2.5zm-25.676-5h23.176v-19.554h-23.176z"/></g><g><path d="m156.22 230.865h-28.24c-1.381 0-2.5-1.119-2.5-2.5v-24.554c0-1.381 1.119-2.5 2.5-2.5h28.24c1.381 0 2.5 1.119 2.5 2.5v24.554c0 1.381-1.119 2.5-2.5 2.5zm-25.741-5h23.24v-19.554h-23.24z"/></g><g><path d="m43.452 206.311h-28.24c-1.381 0-2.5-1.119-2.5-2.5v-9.73c0-3.201 2.604-5.805 5.806-5.805h24.935c1.381 0 2.5 1.119 2.5 2.5v13.036c-.001 1.38-1.12 2.499-2.501 2.499zm-25.74-5h23.24v-8.036h-22.434c-.444 0-.806.361-.806.805z"/></g><g><path d="m71.628 206.311h-28.176c-1.381 0-2.5-1.119-2.5-2.5v-13.036c0-1.381 1.119-2.5 2.5-2.5h28.176c1.381 0 2.5 1.119 2.5 2.5v13.036c0 1.381-1.119 2.5-2.5 2.5zm-25.676-5h23.176v-8.036h-23.176z"/></g><g><path d="m99.804 206.311h-28.176c-1.381 0-2.5-1.119-2.5-2.5v-13.036c0-1.381 1.119-2.5 2.5-2.5h28.176c1.381 0 2.5 1.119 2.5 2.5v13.036c0 1.381-1.119 2.5-2.5 2.5zm-25.676-5h23.176v-8.036h-23.176z"/></g><g><path d="m127.98 206.311h-28.176c-1.381 0-2.5-1.119-2.5-2.5v-13.036c0-1.381 1.119-2.5 2.5-2.5h28.176c1.38 0 2.5 1.119 2.5 2.5v13.036c0 1.381-1.12 2.5-2.5 2.5zm-25.676-5h23.176v-8.036h-23.176z"/></g><g><path d="m156.22 206.311h-28.24c-1.381 0-2.5-1.119-2.5-2.5v-13.036c0-1.381 1.119-2.5 2.5-2.5h28.24c1.381 0 2.5 1.119 2.5 2.5v13.036c0 1.381-1.119 2.5-2.5 2.5zm-25.741-5h23.24v-8.036h-23.24z"/></g><g><path d="m184.372 230.865h-28.176c-1.381 0-2.5-1.119-2.5-2.5v-24.554c0-1.381 1.119-2.5 2.5-2.5h28.176c1.381 0 2.5 1.119 2.5 2.5v24.554c0 1.381-1.119 2.5-2.5 2.5zm-25.676-5h23.176v-19.554h-23.176z"/></g><g><path d="m212.548 230.865h-28.176c-1.381 0-2.5-1.119-2.5-2.5v-24.554c0-1.381 1.119-2.5 2.5-2.5h28.176c1.381 0 2.5 1.119 2.5 2.5v24.554c0 1.381-1.119 2.5-2.5 2.5zm-25.676-5h23.176v-19.554h-23.176z"/></g><g><path d="m237.482 230.865h-24.935c-1.381 0-2.5-1.119-2.5-2.5v-24.554c0-1.381 1.119-2.5 2.5-2.5h28.24c1.381 0 2.5 1.119 2.5 2.5v21.249c.001 3.201-2.603 5.805-5.805 5.805zm-22.434-5h22.435c.444 0 .806-.361.806-.805v-18.749h-23.24v19.554z"/></g><g><path d="m184.372 206.311h-28.176c-1.381 0-2.5-1.119-2.5-2.5v-13.036c0-1.381 1.119-2.5 2.5-2.5h28.176c1.381 0 2.5 1.119 2.5 2.5v13.036c0 1.381-1.119 2.5-2.5 2.5zm-25.676-5h23.176v-8.036h-23.176z"/></g><g><path d="m212.548 206.311h-28.176c-1.381 0-2.5-1.119-2.5-2.5v-13.036c0-1.381 1.119-2.5 2.5-2.5h28.176c1.381 0 2.5 1.119 2.5 2.5v13.036c0 1.381-1.119 2.5-2.5 2.5zm-25.676-5h23.176v-8.036h-23.176z"/></g><g><path d="m240.788 206.311h-28.24c-1.381 0-2.5-1.119-2.5-2.5v-13.036c0-1.381 1.119-2.5 2.5-2.5h24.935c3.201 0 5.806 2.604 5.806 5.805v9.73c-.001 1.382-1.12 2.501-2.501 2.501zm-25.74-5h23.24v-7.23c0-.444-.361-.805-.806-.805h-22.435v8.035z"/></g><g><path d="m136.717 85.022c-1.118 0-2.137-.756-2.423-1.89-.337-1.339.476-2.698 1.814-3.035l5.692-1.433c3.514-.884 5.741-1.915 8.287-3.17 1.164-.574 1.917-1.787 1.917-3.089v-2.186c0-1.381 1.119-2.5 2.5-2.5s2.5 1.119 2.5 2.5v2.186c0 3.191-1.848 6.165-4.706 7.574-2.719 1.341-5.294 2.532-9.277 3.535l-5.692 1.433c-.205.051-.41.075-.612.075z"/></g><g><path d="m188.325 85.065c-.202 0-.407-.024-.612-.076l-5.861-1.476c-2.699-.679-5.084-1.607-6.609-2.266-1.332-.576-2.229-.963-2.838-1.355-2.804-1.462-4.536-4.313-4.536-7.487v-2.186c0-1.381 1.119-2.5 2.5-2.5s2.5 1.119 2.5 2.5v2.186c0 1.322.737 2.507 1.924 3.092.041.02.081.042.121.063.204.11 3.767 1.999 8.159 3.104l5.861 1.476c1.339.337 2.151 1.696 1.814 3.035-.286 1.134-1.305 1.89-2.423 1.89z"/></g><g><path d="m156.848 144.938c-1.381 0-2.5-1.119-2.5-2.5v-15.726c0-7.372-5.997-13.37-13.369-13.37h-70.395c-7.372 0-13.37 5.998-13.37 13.37v15.538c0 1.381-1.119 2.5-2.5 2.5s-2.5-1.119-2.5-2.5v-15.538c0-10.129 8.241-18.37 18.37-18.37h70.395c10.129 0 18.369 8.241 18.369 18.37v15.726c0 1.381-1.119 2.5-2.5 2.5z"/></g><g><path d="m158.906 158.23h-106.25c-2.487 0-4.51-2.023-4.51-4.51v-7.917c0-2.487 2.023-4.51 4.51-4.51h106.25c2.487 0 4.511 2.023 4.511 4.51v7.917c0 2.487-2.023 4.51-4.511 4.51zm-105.76-5h105.271v-6.938h-105.271zm105.76-6.937h.01z"/></g><g><path d="m75.31 174.507h-8.638c-5.728 0-10.388-4.66-10.388-10.389v-6.993c0-1.381 1.119-2.5 2.5-2.5s2.5 1.119 2.5 2.5v6.993c0 2.971 2.417 5.389 5.388 5.389h8.638c2.971 0 5.388-2.417 5.388-5.389v-6.743c0-1.381 1.119-2.5 2.5-2.5s2.5 1.119 2.5 2.5v6.743c0 5.729-4.66 10.389-10.388 10.389z"/></g><g><path d="m144.891 174.507h-8.638c-5.729 0-10.388-4.66-10.388-10.389v-7.035c0-1.381 1.119-2.5 2.5-2.5 1.38 0 2.5 1.119 2.5 2.5v7.035c0 2.971 2.418 5.389 5.389 5.389h8.638c2.972 0 5.389-2.417 5.389-5.389v-6.952c0-1.381 1.119-2.5 2.5-2.5s2.5 1.119 2.5 2.5v6.952c-.002 5.729-4.662 10.389-10.39 10.389z"/></g><g><path d="m146.883 114.208c-1.204 0-2.266-.873-2.465-2.1l-4.02-24.74c-.222-1.363.704-2.647 2.066-2.869 1.364-.222 2.648.705 2.869 2.067l4.02 24.74c.222 1.363-.704 2.647-2.066 2.869-.136.022-.271.033-.404.033z"/></g><g><path d="m64.681 114.199c-.133 0-.268-.011-.404-.033-1.363-.222-2.288-1.506-2.067-2.869l4.459-27.449c.951-5.848 5.941-10.094 11.868-10.094h50.542c1.381 0 2.5 1.119 2.5 2.5s-1.119 2.5-2.5 2.5h-50.542c-3.461 0-6.376 2.48-6.931 5.896l-4.46 27.45c-.2 1.227-1.261 2.099-2.465 2.099z"/></g><g><g><path d="m155.807 121.544c-1.047 0-2.022-.662-2.372-1.71-.437-1.31.271-2.726 1.581-3.162 2.879-.96 4.813-3.63 4.813-6.644 0-3.865-3.145-7.009-7.009-7.009h-6.633c-1.381 0-2.5-1.119-2.5-2.5s1.119-2.5 2.5-2.5h6.633c6.622 0 12.009 5.387 12.009 12.009 0 5.169-3.309 9.746-8.231 11.387-.263.088-.53.129-.791.129z"/></g></g><g><g><path d="m55.8 121.559c-.258 0-.521-.04-.779-.125-4.957-1.625-8.288-6.209-8.288-11.406 0-6.622 5.387-12.009 12.009-12.009h6.633c1.381 0 2.5 1.119 2.5 2.5s-1.119 2.5-2.5 2.5h-6.633c-3.865 0-7.009 3.144-7.009 7.009 0 3.03 1.947 5.704 4.845 6.655 1.312.43 2.027 1.843 1.597 3.154-.345 1.054-1.323 1.722-2.375 1.722z"/></g></g><g><path d="m180.759 58.094c-1.381 0-2.5-1.119-2.5-2.5s1.119-2.5 2.5-2.5c2.585 0 4.688-2.103 4.688-4.688s-2.104-4.688-4.688-4.688c-1.381 0-2.5-1.119-2.5-2.5s1.119-2.5 2.5-2.5c5.342 0 9.688 4.346 9.688 9.688s-4.346 9.688-9.688 9.688z"/></g><g><path d="m144.114 58.094c-5.342 0-9.688-4.346-9.688-9.688s4.347-9.688 9.688-9.688c1.381 0 2.5 1.119 2.5 2.5s-1.119 2.5-2.5 2.5c-2.585 0-4.688 2.103-4.688 4.688s2.104 4.688 4.688 4.688c1.381 0 2.5 1.119 2.5 2.5s-1.119 2.5-2.5 2.5z"/></g><g><path d="m184.415 44.344c-1.381 0-2.5-1.119-2.5-2.5v-5.53c0-5.032-1.168-7.284-2.325-7.284-1.947 0-3.556-1.563-3.585-3.483-.03-2.21-.769-3.884-2.257-5.12-3.04-2.524-9.326-3.259-16.815-1.967-8.075 1.395-13.937 8.352-13.937 16.543v6.213c0 1.381-1.119 2.5-2.5 2.5s-2.5-1.119-2.5-2.5v-6.213c0-10.631 7.606-19.661 18.085-21.47 5.316-.918 15.094-1.743 20.861 3.047 2.293 1.904 3.655 4.511 3.985 7.596 2.459.547 5.987 2.937 5.987 12.137v5.53c.001 1.382-1.118 2.501-2.499 2.501z"/></g><g><path d="m162.437 89.285c-6.061 0-11.595-3.587-14.099-9.139-.567-1.259-.007-2.739 1.252-3.307 1.255-.568 2.737-.008 3.307 1.251 1.697 3.763 5.441 6.195 9.54 6.195 4.08 0 7.818-2.417 9.523-6.156.572-1.256 2.055-1.811 3.312-1.238s1.811 2.056 1.237 3.312c-2.516 5.518-8.039 9.082-14.072 9.082z"/></g><g><path d="m162.437 74.057c-10.872 0-19.718-8.845-19.718-19.718v-14.45c0-2.943 1.119-5.738 3.15-7.869 2.021-2.117 5.28-2.343 7.589-.537 1.773 1.388 4.774 3.042 8.998 3.042 4.213 0 7.195-1.646 8.955-3.028 2.314-1.816 5.577-1.589 7.593.523 2.031 2.131 3.15 4.925 3.15 7.869v14.45c0 10.872-8.845 19.718-19.717 19.718zm-12.486-38.785c-.17 0-.335.065-.458.193-1.146 1.202-1.774 2.771-1.774 4.424v14.45c0 8.115 6.603 14.718 14.718 14.718s14.718-6.603 14.718-14.718v-14.45c0-1.652-.628-3.222-1.77-4.417-.227-.239-.608-.258-.886-.042-2.381 1.868-6.401 4.095-12.043 4.095-5.648 0-9.687-2.232-12.08-4.104-.127-.1-.277-.149-.425-.149z"/></g><g><path d="m139.709 136.82c-4.949 0-8.977-4.027-8.977-8.977s4.027-8.978 8.977-8.978 8.978 4.027 8.978 8.978-4.028 8.977-8.978 8.977zm0-12.955c-2.192 0-3.977 1.784-3.977 3.978 0 2.193 1.784 3.977 3.977 3.977s3.978-1.784 3.978-3.977c0-2.194-1.785-3.978-3.978-3.978z"/></g><g><path d="m71.853 136.82c-4.95 0-8.977-4.027-8.977-8.977s4.027-8.978 8.977-8.978 8.977 4.027 8.977 8.978-4.027 8.977-8.977 8.977zm0-12.955c-2.193 0-3.977 1.784-3.977 3.978 0 2.193 1.784 3.977 3.977 3.977s3.977-1.784 3.977-3.977c0-2.194-1.784-3.978-3.977-3.978z"/></g><g><path d="m123.278 144.938c-1.381 0-2.5-1.119-2.5-2.5v-4.503c0-2.566-2.088-4.654-4.654-4.654h-20.686c-2.566 0-4.654 2.088-4.654 4.654v4.503c0 1.381-1.119 2.5-2.5 2.5s-2.5-1.119-2.5-2.5v-4.503c0-5.323 4.331-9.654 9.654-9.654h20.687c5.323 0 9.654 4.331 9.654 9.654v4.503c-.001 1.38-1.12 2.5-2.501 2.5z"/></g><g><path d="m142.208 90.701h-72.541c-1.381 0-2.5-1.119-2.5-2.5s1.119-2.5 2.5-2.5h72.541c1.381 0 2.5 1.119 2.5 2.5s-1.119 2.5-2.5 2.5z"/></g></g></g></svg>