<?xml version="1.0" encoding="iso-8859-1"?>
<!-- Generator: Adobe Illustrator 19.0.0, SVG Export Plug-In . SVG Version: 6.00 Build 0)  -->
<svg version="1.1" id="Capa_1" xmlns="http://www.w3.org/2000/svg" xmlns:xlink="http://www.w3.org/1999/xlink" x="0px" y="0px"
	 viewBox="0 0 512 512" style="enable-background:new 0 0 512 512;" xml:space="preserve">
<path style="fill:#3993B7;" d="M430.926,355.249c-31.316,55.222-84.832,89.961-142.962,99.354
	c-43.598,7.05-89.806-0.144-131.205-23.628C60.127,376.174,26.232,253.428,81.032,156.808
	C123.705,81.565,207.581,44.36,288.23,57.453c22.919,3.721,45.582,11.501,66.969,23.628
	C451.83,135.882,485.726,258.629,430.926,355.249z"/>
<path style="fill:#3E9DC3;" d="M430.926,355.249c-31.316,55.222-84.832,89.961-142.962,99.354
	c-22.919-3.72-45.582-11.501-66.969-23.628c-96.631-54.801-130.527-177.547-75.726-274.167
	c31.316-55.222,84.832-89.961,142.962-99.354c22.919,3.721,45.582,11.501,66.969,23.628
	C451.83,135.882,485.726,258.629,430.926,355.249z"/>
<g>
	<path style="fill:#D2D2D7;" d="M323.842,120.692v58.295c0,18.695-9.065,36.229-24.327,47.031l-27.092,19.188l-15.273,10.822
		l-1.172,0.832l-1.172-0.832l-42.365-30.011c-15.262-10.802-24.327-28.336-24.327-47.031v-58.295H323.842z"/>
	<path style="fill:#D2D2D7;" d="M323.842,333.07v58.295H188.115V333.07c0-18.695,9.065-36.229,24.327-47.031l42.365-30.011
		l1.172-0.832l1.172,0.832l15.273,10.822l27.092,19.188C314.777,296.841,323.842,314.375,323.842,333.07z"/>
</g>
<g>
	<path style="fill:#EBEBF0;" d="M323.842,120.692v58.295c0,18.695-9.065,36.229-24.327,47.031l-27.092,19.188l-27.092-19.188
		c-15.262-10.802-24.327-28.336-24.327-47.031v-58.295H323.842z"/>
	<path style="fill:#EBEBF0;" d="M323.842,333.07v58.295H221.004V333.07c0-18.695,9.065-36.229,24.327-47.031l27.092-19.188
		l27.092,19.188C314.777,296.841,323.842,314.375,323.842,333.07z"/>
</g>
<g>
	<path style="fill:#F44545;" d="M331.737,139.487H180.221c-6.783,0-12.333-5.55-12.333-12.333V114.22
		c0-6.783,5.55-12.333,12.333-12.333h151.516c6.783,0,12.333,5.55,12.333,12.333v12.933
		C344.07,133.937,338.52,139.487,331.737,139.487z"/>
	<path style="fill:#F44545;" d="M180.221,372.569h151.516c6.783,0,12.333,5.55,12.333,12.333v12.933
		c0,6.783-5.55,12.333-12.333,12.333H180.221c-6.783,0-12.333-5.55-12.333-12.333v-12.933
		C167.888,378.119,173.438,372.569,180.221,372.569z"/>
</g>
<path d="M180.407,333.07v31.789h-0.185c-11.049,0-20.041,8.993-20.041,20.041v12.94c0,11.048,8.993,20.041,20.041,20.041h151.514
	c11.048,0,20.041-8.993,20.041-20.041V384.9c0-11.048-8.993-20.041-20.041-20.041h-0.185V333.07
	c0-21.151-10.309-41.09-27.575-53.321l-0.606-0.432c-3.474-2.456-8.284-1.634-10.74,1.84c-2.467,3.474-1.644,8.284,1.829,10.75
	l0.606,0.421c13.186,9.342,21.069,24.574,21.069,40.741v31.789H195.824V333.07c0-16.167,7.883-31.398,21.069-40.741l39.086-27.688
	l13.32,9.435c3.474,2.467,8.284,1.644,10.75-1.829c2.456-3.474,1.634-8.294-1.84-10.75l-7.719-5.468l33.485-23.721
	c17.266-12.23,27.575-32.169,27.575-53.321v-31.789h0.185c11.048,0,20.041-8.993,20.041-20.041v-12.94
	c0-11.049-8.993-20.041-20.041-20.041H218.558c-4.255,0-7.708,3.453-7.708,7.708c0,4.265,3.453,7.708,7.708,7.708h113.178
	c2.508,0,4.625,2.117,4.625,4.625v12.94c0,2.508-2.117,4.625-4.625,4.625c-32.648,0-122.869,0-151.514,0
	c-2.508,0-4.625-2.117-4.625-4.625v-12.94c0-2.508,2.117-4.625,4.625-4.625h7.503c4.265,0,7.708-3.443,7.708-7.708
	c0-4.255-3.443-7.708-7.708-7.708h-7.503c-11.049,0-20.041,8.993-20.041,20.041v12.94c0,11.049,8.993,20.041,20.041,20.041h0.185
	v31.789c0,21.151,10.309,41.09,27.575,53.321l33.485,23.721l-33.485,23.721C190.716,291.98,180.407,311.918,180.407,333.07z
	 M331.736,380.275c2.508,0,4.625,2.117,4.625,4.625v12.94c0,2.508-2.117,4.625-4.625,4.625H180.222
	c-2.508,0-4.625-2.117-4.625-4.625V384.9c0-2.508,2.117-4.625,4.625-4.625C216.288,380.275,293.827,380.275,331.736,380.275z
	 M216.893,219.728c-13.186-9.342-21.069-24.574-21.069-40.741v-31.789h120.311v31.789c0,16.167-7.883,31.398-21.069,40.741
	l-39.086,27.688L216.893,219.728z"/>
<path d="M506.033,201.329c-0.906-4.159-5.012-6.796-9.172-5.891c-4.16,0.905-6.798,5.012-5.891,9.172
	c32.719,150.249-82.076,291.917-234.991,291.917c-132.611,0-240.498-107.887-240.498-240.498S123.368,15.531,255.979,15.531
	c76.852,0,147.787,35.992,193.116,97.122l-18.183-3.211c-4.19-0.747-8.191,2.059-8.93,6.251c-0.741,4.192,2.059,8.191,6.251,8.93
	c36.672,5.702,38.328,8.542,42.946,5.206c4.626-3.342,2.456-5.843,8.694-43.421c0.614-4.213-2.303-8.126-6.516-8.74
	c-4.216-0.602-8.126,2.304-8.74,6.516l-2.873,19.71c-21.487-28.991-49.002-53.359-80.473-71.062
	C213.538-61.522,0.065,58.138,0.065,256.028c0,68.358,26.619,132.623,74.956,180.958c100.008,100.01,261.894,100.025,361.917,0
	C500.866,373.058,524.021,283.938,506.033,201.329z"/>
<path d="M73.409,171.265c-3.921-1.649-8.443,0.196-10.092,4.122C5.892,312.11,106.713,464.901,255.794,464.901
	c75.134,0,144.809-40.558,181.838-105.845c57.757-101.828,20.001-228.744-78.625-284.68
	c-98.664-55.962-222.854-22.662-281.109,72.563c-2.222,3.631-1.079,8.376,2.552,10.598c3.631,2.223,8.376,1.08,10.598-2.552
	C146.49,64.359,262.121,37.145,351.401,87.784c60.47,34.296,98.035,98.833,98.035,168.429c0,106.636-87.067,193.272-193.641,193.272
	c-137.879,0-231.471-141.447-178.262-268.127C79.179,177.432,77.334,172.914,73.409,171.265z"/>
<g>
</g>
<g>
</g>
<g>
</g>
<g>
</g>
<g>
</g>
<g>
</g>
<g>
</g>
<g>
</g>
<g>
</g>
<g>
</g>
<g>
</g>
<g>
</g>
<g>
</g>
<g>
</g>
<g>
</g>
</svg>
