<?xml version="1.0" encoding="iso-8859-1"?>
<!-- Generator: Adobe Illustrator 19.0.0, SVG Export Plug-In . SVG Version: 6.00 Build 0)  -->
<svg version="1.1" id="Capa_1" xmlns="http://www.w3.org/2000/svg" xmlns:xlink="http://www.w3.org/1999/xlink" x="0px" y="0px"
	 viewBox="0 0 496 496" style="enable-background:new 0 0 496 496;" xml:space="preserve">
<g>
	<rect x="24" y="264" style="fill:#ECECEC;" width="64" height="40"/>
	<rect x="8" y="304" style="fill:#ECECEC;" width="64" height="40"/>
</g>
<circle style="fill:#8C95A4;" cx="256" cy="384" r="56"/>
<path style="fill:#798699;" d="M256,416c-26.808,0-49.184-18.848-54.68-44c-0.848,3.872-1.32,7.88-1.32,12c0,30.928,25.072,56,56,56
	s56-25.072,56-56c0-4.12-0.472-8.128-1.32-12C305.184,397.152,282.808,416,256,416z"/>
<circle style="fill:#8C95A4;" cx="368" cy="384" r="56"/>
<path style="fill:#798699;" d="M368,416c-26.808,0-49.184-18.848-54.68-44c-0.848,3.872-1.32,7.88-1.32,12c0,30.928,25.072,56,56,56
	s56-25.072,56-56c0-4.12-0.472-8.128-1.32-12C417.184,397.152,394.808,416,368,416z"/>
<rect x="56" y="352" style="fill:#8C95A4;" width="32" height="88"/>
<rect x="56" y="352" style="fill:#798699;" width="32" height="32"/>
<polygon style="fill:#FCD770;" points="464,312 448,312 408,272 216,272 152,336 56,336 56,72 464,72 "/>
<rect x="56" y="72" style="fill:#FFC729;" width="408" height="40"/>
<polygon style="fill:#ECECEC;" points="216,264 152,328 40,328 40,360 168,360 232,296 392,296 432,336 488,336 488,304 448,304 
	408,264 "/>
<polygon style="fill:#FFC729;" points="457.936,280 417.936,240 206.064,240 142.064,304 56,304 56,336 152,336 216,272 408,272 
	448,312 464,312 464,280 "/>
<g>
	<rect x="32" y="56" style="fill:#ECECEC;" width="456" height="32"/>
	<circle style="fill:#ECECEC;" cx="256" cy="384" r="24"/>
	<circle style="fill:#ECECEC;" cx="368" cy="384" r="24"/>
</g>
<path d="M256,352c-17.648,0-32,14.352-32,32s14.352,32,32,32s32-14.352,32-32S273.648,352,256,352z M256,400
	c-8.824,0-16-7.176-16-16s7.176-16,16-16s16,7.176,16,16S264.824,400,256,400z"/>
<path d="M368,320c-24.08,0-45.08,13.384-56,33.088C301.08,333.384,280.08,320,256,320c-35.288,0-64,28.712-64,64s28.712,64,64,64
	c24.08,0,45.08-13.384,56-33.088C322.92,434.616,343.92,448,368,448c35.288,0,64-28.712,64-64S403.288,320,368,320z M256,432
	c-26.472,0-48-21.528-48-48s21.528-48,48-48s48,21.528,48,48S282.472,432,256,432z M368,432c-26.472,0-48-21.528-48-48
	s21.528-48,48-48s48,21.528,48,48S394.472,432,368,432z"/>
<path d="M368,352c-17.648,0-32,14.352-32,32s14.352,32,32,32s32-14.352,32-32S385.648,352,368,352z M368,400
	c-8.824,0-16-7.176-16-16s7.176-16,16-16s16,7.176,16,16S376.824,400,368,400z"/>
<path d="M496,96V48H24v48h24v160H16v40H0v56h32v16h16v72h48v-72h75.312l64-64h153.376l40,40H496v-48h-24V96H496z M40,64h440v16H40
	V64z M32,272h16v24H32V272z M16,336v-24h32v8H32v16H16z M80,424H64v-56h16V424z M480,328h-44.688l-40-40H228.688l-64,64H48v-16
	h107.312l64-64h185.376l40,40H480V328z M456,296h-4.688L424,268.688V168h-16v88h-48V112h-16v144h-48V112h-16v144h-48V112h-16v144
	h-3.312l-64,64H64V96h392V296z"/>
<rect x="88" y="256" width="16" height="40"/>
<rect x="88" y="112" width="16" height="128"/>
<rect x="152" y="112" width="16" height="184"/>
<rect x="408" y="112" width="16" height="40"/>
<g>
</g>
<g>
</g>
<g>
</g>
<g>
</g>
<g>
</g>
<g>
</g>
<g>
</g>
<g>
</g>
<g>
</g>
<g>
</g>
<g>
</g>
<g>
</g>
<g>
</g>
<g>
</g>
<g>
</g>
</svg>
