<svg height="512" viewBox="0 0 512 512" width="512" xmlns="http://www.w3.org/2000/svg"><g id="Pickup_Truck" data-name="Pickup Truck"><g id="Filled"><circle cx="88" cy="176" fill="#f09b73" r="64"/><path d="m110.9 116.237a64 64 0 0 1 -85.8 71.526 64 64 0 1 0 85.8-71.526z" fill="#e58b6c"/><circle cx="88" cy="176" fill="#e08261" r="32"/><circle cx="200" cy="176" fill="#f09b73" r="64"/><path d="m222.9 116.237a64 64 0 0 1 -85.8 71.526 64 64 0 1 0 85.8-71.526z" fill="#e58b6c"/><circle cx="200" cy="176" fill="#e08261" r="32"/><path d="m424 216h-96v-88h-32v80h-288v128h496v-96z" fill="#ea6049"/><path d="m424 216-32-88h-64v88z" fill="#90caf9"/><path d="m296 336v-128h-77.6a208.252 208.252 0 0 1 -91.552 128z" fill="#de513e"/><path d="m399.258 147.96a104.172 104.172 0 0 1 -71.258 57.47v10.57h96z" fill="#64b5f6"/><circle cx="348" cy="148" fill="#e3f2fd" r="12"/><circle cx="360" cy="176" fill="#e3f2fd" r="8"/><circle cx="364" cy="228" fill="#f27c6d" r="12"/><circle cx="384" cy="248" fill="#f27c6d" r="8"/><path d="m504 240-72.316-21.695a208.409 208.409 0 0 1 -88.823 117.695h161.139z" fill="#de513e"/><circle cx="392" cy="336" fill="#424242" r="64"/><circle cx="120" cy="336" fill="#424242" r="64"/><circle cx="392" cy="336" fill="#e2dbd5" r="16"/><circle cx="120" cy="336" fill="#e2dbd5" r="16"/><path d="m157.12 283.881a71.964 71.964 0 0 1 -89.239 89.239 63.989 63.989 0 1 0 89.239-89.239z" fill="#333"/><path d="m429.12 283.881a71.964 71.964 0 0 1 -89.239 89.239 63.989 63.989 0 1 0 89.239-89.239z" fill="#333"/><g fill="#757575"><circle cx="106.296" cy="290.117" r="12"/><circle cx="81.588" cy="307.937" r="8"/><circle cx="371.998" cy="294.179" r="12"/><circle cx="347.291" cy="311.999" r="8"/></g></g><g id="Outline"><path d="m506.3 232.338-76.153-22.847-30.627-84.225a8 8 0 0 0 -7.52-5.266h-96a8 8 0 0 0 -8 8v72h-280a8 8 0 0 0 -8 8v128a8 8 0 0 0 8 8h40.455a71.99 71.99 0 0 0 143.09 0h128.91a71.99 71.99 0 0 0 143.09 0h40.455a8 8 0 0 0 8-8v-96a8 8 0 0 0 -5.7-7.662zm-218.3 95.662h-96.455a71.442 71.442 0 0 0 -3.673-16h76.128a8 8 0 0 0 0-16h-84.167a71.943 71.943 0 0 0 -65.923-31.741 8 8 0 1 0 1.34 15.943 56 56 0 1 1 4.75 111.798c-36.96 0-63.734-35.3-54.034-70.749a8 8 0 0 0 -15.432-4.224 71.352 71.352 0 0 0 -2.084 10.973h-32.45v-16h16a8 8 0 0 0 0-16h-16v-48h248a8 8 0 0 0 0-16h-248v-16h272zm208-72h-24a8 8 0 0 0 0 16h24v56h-32.46a71.946 71.946 0 0 0 -65.7-63.765 8 8 0 0 0 -1.279 15.95 56 56 0 0 1 -4.561 111.815c-41.425 0-68.328-43.54-50.4-80.434a8 8 0 0 0 -14.391-6.992 71.071 71.071 0 0 0 -6.772 23.426h-16.437v-192h82.4l26.182 72h-76.582v-56a8 8 0 0 0 -16 0v64a8 8 0 0 0 8 8h94.827l73.173 21.952z"/><path d="m368 336a24 24 0 1 0 24-24 24.028 24.028 0 0 0 -24 24zm24-8a8 8 0 1 1 -8 8 8.009 8.009 0 0 1 8-8z"/><path d="m96 336a24 24 0 1 0 24-24 24.028 24.028 0 0 0 -24 24zm24-8a8 8 0 1 1 -8 8 8.009 8.009 0 0 1 8-8z"/><circle cx="360" cy="280" r="8"/><circle cx="200" cy="176" r="8"/><circle cx="88" cy="176" r="8"/><circle cx="80" cy="288" r="8"/><path d="m136 184a8 8 0 0 0 8-8 56 56 0 0 1 112 0 8 8 0 0 0 16 0 72 72 0 0 0 -144 0 8 8 0 0 0 8 8z"/><path d="m224 176a8 8 0 0 0 8 8c18.236 0 5.192-48-32-48s-50.237 48-32 48a8 8 0 0 0 8-8 24 24 0 0 1 48 0z"/><path d="m24 184a8 8 0 0 0 8-8c0-43.764 48.1-70.358 85.034-47.9a8 8 0 0 0 8.313-13.672c-47.525-28.897-109.347 5.31-109.347 61.572a8 8 0 0 0 8 8z"/><path d="m113.775 155.438a8 8 0 0 0 -1.5-11.213c-26.191-20.025-64.275-1.285-64.275 31.775a8 8 0 0 0 16 0c0-19.876 22.867-31.061 38.562-19.064a8 8 0 0 0 11.213-1.498z"/></g></g></svg>