<?xml version="1.0" encoding="iso-8859-1"?>
<!-- Generator: Adobe Illustrator 19.0.0, SVG Export Plug-In . SVG Version: 6.00 Build 0)  -->
<svg version="1.1" id="Capa_1" xmlns="http://www.w3.org/2000/svg" xmlns:xlink="http://www.w3.org/1999/xlink" x="0px" y="0px"
	 viewBox="0 0 511.999 511.999" style="enable-background:new 0 0 511.999 511.999;" xml:space="preserve">
<path style="fill:#FFFFFF;" d="M501.875,434.788v4.349c0-29.064-23.561-52.627-52.626-52.627c-22.898,0-41.639,17.75-43.247,40.238
	V71.935h-0.125H10.005V502l0,0h414.724h13.408c35.267,0,63.855-28.589,63.855-63.856
	C501.993,437.016,501.945,435.899,501.875,434.788z"/>
<polygon style="fill:#A0E557;" points="9.222,501.217 157.575,352.864 306.525,501.813 "/>
<path style="fill:#FE8F8D;" d="M322.006,501.216l124.267,0.25c31.422-3.999,55.72-30.813,55.72-63.322
	c0-1.128-0.048-2.245-0.118-3.356v4.349c0-29.064-23.561-52.627-52.626-52.627c-5.405,0-10.573,0.999-15.344,2.806l-27.903,27.903
	L322.006,501.216z"/>
<polyline style="fill:#C9F3FF;" points="356.766,385.12 241.042,269.398 199.184,311.255 314.908,426.978 356.766,385.12 "/>
<polygon style="fill:#99BBFF;" points="266.003,113.002 405.495,252.494 404.208,71.935 154.897,71.935 119.752,107.08 
	195.839,183.166 "/>
<polygon style="fill:#D8D8E4;" points="10.418,216.414 79.215,147.617 155.301,223.704 11.67,367.334 "/>
<path style="fill:#FFB954;" d="M449.374,10c-23.953,0-43.372,19.417-43.372,43.371v375.512c0-23.953,19.417-43.371,43.372-43.371
	c29.064,0,52.626,23.561,52.626,52.627V62.625C502,33.561,478.438,10,449.374,10z"/>
<circle style="fill:#FF5D5D;" cx="64.358" cy="245.363" r="23.999"/>
<path d="M449.366,0c-29.429,0-53.371,23.941-53.371,53.371v8.565H10.006c-5.522,0-10,4.478-10,10v430.064c0,5.522,4.478,10,10,10
	h428.131c40.725,0,73.855-33.131,73.855-73.855V62.625C511.993,28.094,483.898,0,449.366,0z M415.995,53.371
	c0-18.4,14.971-33.371,33.371-33.371c23.504,0,42.627,19.121,42.627,42.626v329.696c-11.188-10.415-26.172-16.804-42.627-16.804
	c-12.621,0-24.224,4.413-33.371,11.764V53.371z M395.996,228.851l-122.921-122.92c-3.905-3.903-10.235-3.904-14.143,0
	l-63.094,63.093l-61.944-61.943l24.228-24.228c0.292-0.292,0.554-0.6,0.802-0.917h237.072L395.996,228.851L395.996,228.851z
	 M438.137,492.001h-91.914l21.602-21.602c3.905-3.905,3.905-10.237,0-14.143c-3.904-3.903-10.234-3.904-14.143,0L317.937,492h-7.126
	c-0.128-0.143-0.249-0.29-0.387-0.428l-53.002-53.002c-3.906-3.904-10.236-3.904-14.143,0c-3.905,3.905-3.905,10.237,0,14.143
	L282.567,492H32.582l124.994-124.993l31.211,31.211c3.906,3.904,10.236,3.904,14.143,0c3.905-3.905,3.905-10.237,0-14.143
	l-38.282-38.282c-3.906-3.904-10.236-3.904-14.143,0L20.006,476.292V372.899c0.491-0.339,0.961-0.719,1.398-1.156l57.176-57.175
	c3.905-3.905,3.905-10.237,0-14.143c-3.905-3.903-10.235-3.904-14.143,0l-44.433,44.432v-124.13
	c0.491-0.339,0.961-0.719,1.398-1.156l57.811-57.811l61.944,61.944l-20.221,20.22c-3.905,3.905-3.905,10.237,0,14.143
	c1.953,1.952,4.512,2.929,7.071,2.929s5.118-0.977,7.071-2.929l27.292-27.291c1.875-1.875,2.929-4.419,2.929-7.071
	s-1.054-5.195-2.929-7.071l-76.085-76.088c-1.876-1.875-4.419-2.929-7.071-2.929c-2.652,0-5.195,1.054-7.071,2.929l-52.139,52.139
	V81.936h110.749l-18.074,18.074c-3.905,3.905-3.905,10.237,0,14.143l76.086,76.086c3.906,3.903,10.236,3.905,14.143,0l63.094-63.093
	l129.991,129.991v171.752c0,25.223,20.52,45.744,45.744,45.744c21.757,0,39.458-17.701,39.458-39.458c0-5.522-4.478-10-10-10
	s-10,4.478-10,10c0,10.729-8.729,19.458-19.458,19.458c-14.196,0-25.744-11.549-25.744-25.744c0-18.4,14.971-33.371,33.371-33.371
	c23.504,0,42.627,19.122,42.627,42.627C491.993,467.841,467.834,492.001,438.137,492.001z"/>
<path d="M229.43,410.577c-3.906-3.904-10.236-3.904-14.143,0c-3.905,3.905-3.905,10.237,0,14.143l1.249,1.249
	c1.953,1.952,4.512,2.929,7.071,2.929s5.118-0.977,7.071-2.929c3.905-3.905,3.905-10.237,0-14.143L229.43,410.577z"/>
<path d="M248.113,262.326c-1.876-1.875-4.419-2.929-7.071-2.929c-2.652,0-5.196,1.054-7.071,2.929l-41.857,41.858
	c-3.905,3.905-3.905,10.237,0,14.143L307.838,434.05c1.876,1.875,4.419,2.929,7.071,2.929c2.652,0,5.195-1.054,7.071-2.929
	l41.857-41.858c3.905-3.905,3.905-10.237,0-14.143L248.113,262.326z M314.908,412.837L213.326,311.256l27.716-27.716L342.624,385.12
	L314.908,412.837z"/>
<path d="M222.794,238.965c2.56,0,5.118-0.977,7.071-2.929l3.536-3.536c3.905-3.905,3.905-10.237,0-14.143
	c-3.906-3.904-10.236-3.904-14.143,0l-3.536,3.536c-3.905,3.905-3.905,10.237,0,14.143
	C217.677,237.988,220.234,238.965,222.794,238.965z"/>
<path d="M251.078,208.937c1.953,1.952,4.512,2.929,7.071,2.929c2.559,0,5.118-0.977,7.071-2.929c3.905-3.905,3.905-10.237,0-14.143
	l-3.535-3.535c-3.906-3.904-10.236-3.904-14.143,0c-3.905,3.905-3.905,10.237,0,14.143L251.078,208.937z"/>
<path d="M155.621,281.996l-3.536,3.536c-3.905,3.905-3.905,10.237,0,14.143c1.953,1.952,4.512,2.929,7.071,2.929
	c2.559,0,5.118-0.977,7.071-2.929l3.536-3.536c3.905-3.905,3.905-10.237,0-14.143C165.857,278.092,159.527,278.092,155.621,281.996z
	"/>
<path d="M282.896,240.757c1.953,1.952,4.512,2.929,7.071,2.929s5.118-0.977,7.071-2.929c3.905-3.905,3.905-10.237,0-14.143
	l-3.535-3.535c-3.906-3.904-10.236-3.904-14.143,0c-3.905,3.905-3.905,10.237,0,14.143L282.896,240.757z"/>
<path d="M134.409,300.398c-3.906-3.904-10.236-3.904-14.143,0c-3.905,3.905-3.905,10.237,0,14.143l3.535,3.535
	c1.953,1.952,4.512,2.929,7.071,2.929c2.559,0,5.118-0.977,7.071-2.929c3.905-3.905,3.905-10.237,0-14.143L134.409,300.398z"/>
<path d="M198.047,267.855l3.535-3.535c3.905-3.905,3.905-10.237,0-14.143c-3.906-3.904-10.236-3.904-14.143,0l-3.535,3.535
	c-3.905,3.905-3.905,10.237,0,14.143c1.953,1.952,4.512,2.929,7.071,2.929C193.534,270.784,196.094,269.807,198.047,267.855z"/>
<path d="M102.591,268.579c-3.248-3.246-8.166-3.784-11.979-1.633c4.84-5.875,7.75-13.396,7.75-21.584
	c0-18.747-15.252-33.999-33.999-33.999s-33.999,15.252-33.999,33.999c0,18.748,15.252,33.999,33.999,33.999
	c8.532,0,16.333-3.166,22.308-8.375c-1.992,3.776-1.4,8.558,1.777,11.735l3.535,3.535c1.953,1.952,4.512,2.929,7.071,2.929
	c2.559,0,5.118-0.977,7.071-2.929c3.905-3.905,3.905-10.237,0-14.143L102.591,268.579z M64.363,259.361c-7.72,0-14-6.28-14-14
	s6.28-14,14-14s14,6.28,14,14S72.083,259.361,64.363,259.361z"/>
<path d="M361.78,267.025c-5.522,0-10,4.478-10,10v4.331l-12.777-12.777c-3.906-3.904-10.236-3.904-14.143,0
	c-3.905,3.905-3.905,10.237,0,14.143l14.153,14.153h-7.082c-5.522,0-10,4.478-10,10c0,5.522,4.478,10,10,10h29.848
	c5.522,0,10-4.478,10-10v-29.849C371.779,271.503,367.302,267.025,361.78,267.025z"/>
<path d="M456.001,149.823c-5.522,0-10-4.478-10-10v-73.42c0-5.522,4.478-10,10-10s10,4.478,10,10v73.42
	C466.001,145.346,461.523,149.823,456.001,149.823z"/>
<path d="M456.001,188.432c-2.63,0-5.21-1.07-7.07-2.93c-1.86-1.86-2.93-4.44-2.93-7.07c0-2.63,1.069-5.21,2.93-7.07
	c1.86-1.859,4.44-2.93,7.07-2.93c2.63,0,5.21,1.07,7.069,2.93c1.86,1.87,2.931,4.44,2.931,7.07c0,2.63-1.07,5.21-2.931,7.07
	C461.211,187.361,458.631,188.432,456.001,188.432z"/>
<g>
</g>
<g>
</g>
<g>
</g>
<g>
</g>
<g>
</g>
<g>
</g>
<g>
</g>
<g>
</g>
<g>
</g>
<g>
</g>
<g>
</g>
<g>
</g>
<g>
</g>
<g>
</g>
<g>
</g>
</svg>
